<svg width="100" height="21" viewBox="0 0 100 21" fill="none" xmlns="http://www.w3.org/2000/svg">
<path d="M32.5454 16.3296C32.0436 16.3568 31.5473 16.2141 31.1365 15.9247C30.7881 15.6664 30.5893 15.253 30.6051 14.8195V6.99924C30.5967 6.93215 30.6198 6.86498 30.6676 6.81717C30.7154 6.76937 30.7826 6.74628 30.8497 6.7546H32.267C32.4273 6.7546 32.5032 6.83896 32.5032 6.99924V14.2121C32.5032 14.5327 32.6466 14.693 32.9419 14.693C33.067 14.6982 33.1922 14.6839 33.3131 14.6508C33.4818 14.6508 33.5746 14.7014 33.583 14.8533L33.7096 15.9078C33.7219 15.97 33.7066 16.0345 33.6678 16.0846C33.629 16.1348 33.5704 16.1656 33.5071 16.1693C33.1967 16.2719 32.8723 16.3259 32.5454 16.3296Z" fill="white"/>
<path fill-rule="evenodd" clip-rule="evenodd" d="M35.4558 15.4266C36.9248 16.6402 39.0486 16.6402 40.5175 15.4266V15.4181C41.7881 14.0931 41.7881 12.002 40.5175 10.677C39.0462 9.46997 36.9272 9.46997 35.4558 10.677C34.1531 11.9922 34.1531 14.1114 35.4558 15.4266ZM39.2015 14.3131C38.5168 14.9333 37.4734 14.9333 36.7888 14.3131C36.1703 13.602 36.1703 12.5439 36.7888 11.8329C37.4734 11.2126 38.5168 11.2126 39.2015 11.8329C39.82 12.5439 39.82 13.602 39.2015 14.3131Z" fill="white"/>
<path fill-rule="evenodd" clip-rule="evenodd" d="M49.5104 10.2296C49.5104 10.0693 49.4345 9.98495 49.2742 9.98495L47.8738 9.99338C47.8081 9.98784 47.7434 10.0122 47.6976 10.0596C47.6518 10.107 47.6297 10.1726 47.6376 10.238V10.373C47.1228 9.97925 46.4886 9.77381 45.8407 9.79092C44.9519 9.75921 44.088 10.0877 43.4448 10.702C42.1806 12.0099 42.1806 14.0846 43.4448 15.3925C44.085 16.0124 44.9502 16.3444 45.8407 16.312C46.4704 16.3299 47.088 16.1369 47.5954 15.7637V16.2952C47.6126 16.686 47.4694 17.067 47.1989 17.3497C46.9029 17.6198 46.5108 17.7597 46.1106 17.7377C45.7824 17.7444 45.4576 17.669 45.1658 17.5184C44.9264 17.3889 44.7431 17.1757 44.6512 16.9194C44.6047 16.8056 44.4957 16.7296 44.3728 16.7254H42.9555C42.7278 16.7254 42.7278 16.8013 42.7278 16.9701C42.8464 17.6613 43.2466 18.2723 43.8329 18.6573C44.5121 19.0976 45.3102 19.3184 46.1191 19.29C47.0146 19.3295 47.8919 19.028 48.574 18.4464C49.1963 17.9013 49.5403 17.1051 49.5104 16.2783V10.2296ZM47.1568 14.3125C46.8643 14.6415 46.441 14.8238 46.001 14.8102C45.5563 14.8231 45.1281 14.6413 44.8284 14.3125C44.5258 13.9651 44.3661 13.516 44.3813 13.0555C44.3627 12.5905 44.5261 12.1366 44.8368 11.7901C45.1358 11.4603 45.5645 11.2784 46.0094 11.2924C46.4454 11.278 46.8654 11.4571 47.1568 11.7816C47.7336 12.5266 47.7336 13.5675 47.1568 14.3125Z" fill="white"/>
<path fill-rule="evenodd" clip-rule="evenodd" d="M51.7291 15.4268C53.2004 16.6338 55.3194 16.6338 56.7908 15.4268V15.4183C58.0613 14.0933 58.0613 12.0022 56.7908 10.6772C55.3182 9.47348 53.2016 9.47348 51.7291 10.6772C50.4575 12.0051 50.4575 14.0989 51.7291 15.4268ZM54.2683 14.777C53.8176 14.7909 53.3802 14.6238 53.0535 14.313C52.4458 13.598 52.4458 12.5479 53.0535 11.8328C53.3802 11.522 53.8176 11.355 54.2683 11.3688C54.7161 11.3572 55.1501 11.5241 55.4747 11.8328C56.0824 12.5479 56.0824 13.598 55.4747 14.313C55.1501 14.6217 54.7161 14.7886 54.2683 14.777Z" fill="white"/>
<path fill-rule="evenodd" clip-rule="evenodd" d="M59.1783 8.55144C59.6396 8.95515 60.3284 8.95515 60.7896 8.55144C60.994 8.3586 61.1098 8.09004 61.1098 7.80907C61.1098 7.52809 60.994 7.25954 60.7896 7.06669C60.3244 6.67373 59.6435 6.67373 59.1783 7.06669C58.974 7.25954 58.8582 7.52809 58.8582 7.80907C58.8582 8.09004 58.974 8.3586 59.1783 8.55144ZM59.5579 15.9248C59.9698 16.2119 60.4653 16.3543 60.9668 16.3297C61.2965 16.3267 61.6237 16.2726 61.9369 16.1695C62.0002 16.1658 62.0589 16.1349 62.0977 16.0848C62.1365 16.0346 62.1517 15.9701 62.1394 15.9079L62.0129 14.8534C62.0044 14.7016 61.9116 14.651 61.7429 14.651C61.6191 14.6835 61.4912 14.6977 61.3633 14.6931C61.0765 14.6931 60.933 14.5328 60.933 14.2123V10.2304C60.933 10.0701 60.8571 9.98577 60.6968 9.98577H59.2796C59.2125 9.97746 59.1453 10.0005 59.0975 10.0484C59.0497 10.0962 59.0266 10.1633 59.0349 10.2304V14.8197C59.0201 15.251 59.215 15.6628 59.5579 15.9248Z" fill="white"/>
<path fill-rule="evenodd" clip-rule="evenodd" d="M69.7656 10.6936C69.1178 10.0759 68.2472 9.74713 67.3528 9.78247C66.5719 9.76546 65.8183 10.0706 65.2691 10.6261C64.9795 10.0601 64.3755 9.72641 63.7422 9.78247C63.4317 9.77677 63.1229 9.82825 62.8311 9.93432C62.7089 9.96979 62.628 10.0858 62.637 10.2127V11.2082C62.637 11.3432 62.7298 11.4106 62.9154 11.4106H63.1938C63.331 11.3905 63.4697 11.4364 63.5677 11.5345C63.6658 11.6325 63.7117 11.7712 63.6916 11.9084V18.826C63.6793 18.8917 63.7002 18.9591 63.7474 19.0064C63.7946 19.0536 63.8621 19.0745 63.9278 19.0622H65.345C65.5053 19.0622 65.5897 18.9863 65.5897 18.826V15.7806C66.102 16.1504 66.7211 16.343 67.3528 16.3289C68.2489 16.365 69.1208 16.0327 69.7656 15.4094C71.0032 14.0811 71.0032 12.0219 69.7656 10.6936ZM67.201 14.8099C66.7613 14.8099 66.3408 14.6303 66.0368 14.3126C65.732 13.9532 65.5726 13.4928 65.5897 13.0219C65.5701 12.5506 65.7298 12.0893 66.0368 11.7311C66.3408 11.4135 66.7613 11.2338 67.201 11.2338C67.6407 11.2338 68.0612 11.4135 68.3652 11.7311C68.6844 12.0831 68.8512 12.5472 68.8292 13.0219C68.8485 13.4961 68.682 13.9592 68.3652 14.3126C68.0612 14.6303 67.6407 14.8099 67.201 14.8099Z" fill="white"/>
<path d="M74.6754 16.3294C73.918 16.3605 73.1671 16.1794 72.5073 15.8064C71.971 15.4834 71.6108 14.9338 71.5287 14.3132C71.5287 14.1445 71.5877 14.0601 71.7733 14.0601H73.0134C73.1337 14.0648 73.2412 14.1365 73.2918 14.2457C73.469 14.7012 73.933 14.929 74.6754 14.929C74.9343 14.9409 75.1922 14.8887 75.4262 14.7772C75.5907 14.7029 75.701 14.544 75.713 14.3638C75.713 14.1445 75.578 13.9926 75.3081 13.8914C74.9879 13.7848 74.6568 13.7141 74.321 13.6805C73.9233 13.6354 73.5288 13.565 73.14 13.4696C72.7619 13.384 72.4181 13.1871 72.153 12.9044C71.8373 12.5158 71.6971 12.0137 71.7659 11.5179C71.8347 11.0221 72.1062 10.5771 72.5157 10.2892C73.1238 9.9018 73.8372 9.71312 74.5573 9.74924C75.2544 9.72566 75.9442 9.89811 76.5482 10.247C77.0412 10.5262 77.3821 11.0127 77.4762 11.5714C77.4762 11.7402 77.4002 11.8245 77.2484 11.8245H75.9998C75.8922 11.8309 75.7918 11.7706 75.7467 11.6727C75.6633 11.4729 75.5063 11.3128 75.3081 11.2256C75.0845 11.1086 74.8348 11.0505 74.5826 11.0568C74.3353 11.0434 74.0886 11.0927 73.8655 11.2003C73.7047 11.2623 73.5978 11.416 73.5955 11.5883C73.6066 11.8251 73.7709 12.027 74.0005 12.086C74.3244 12.2081 74.6612 12.293 75.0044 12.3391C75.3989 12.391 75.7904 12.4643 76.177 12.5585C76.5551 12.644 76.8989 12.8409 77.164 13.1237C77.4505 13.4383 77.5994 13.8545 77.5774 14.2794C77.5922 14.8727 77.2943 15.43 76.7928 15.7473C76.1625 16.152 75.4239 16.355 74.6754 16.3294Z" fill="white"/>
<path d="M86.4944 15.9075C86.5041 15.968 86.4889 16.0299 86.4524 16.0791C86.4159 16.1283 86.3611 16.1607 86.3004 16.169C85.9924 16.2696 85.6711 16.3236 85.3471 16.3293C84.695 16.3968 84.0551 16.1185 83.6599 15.5954C83.064 16.1077 82.2935 16.3706 81.5087 16.3293C80.7718 16.3633 80.0549 16.0845 79.5346 15.5616C79.0183 15.0142 78.7472 14.2801 78.7838 13.5285V10.23C78.7838 10.0697 78.8597 9.98535 79.02 9.98535H80.4373C80.5976 9.98535 80.6735 10.0697 80.6735 10.23V13.2754C80.6581 13.6549 80.7878 14.0259 81.0362 14.3131C81.2871 14.5793 81.6409 14.7238 82.0064 14.7096C82.3799 14.7259 82.7444 14.5923 83.0187 14.3384C83.2786 14.0706 83.416 13.7072 83.3984 13.3345V10.23C83.3984 10.0697 83.4743 9.98535 83.6346 9.98535H85.0687C85.229 9.98535 85.3049 10.0697 85.3049 10.23V14.2034C85.3049 14.5324 85.4483 14.6927 85.7267 14.6927C85.8575 14.6978 85.9882 14.6836 86.1148 14.6505C86.1794 14.6324 86.2488 14.6449 86.303 14.6843C86.3573 14.7238 86.3905 14.7859 86.3932 14.853L86.4944 15.9075Z" fill="white"/>
<path d="M99.8994 15.907C99.9146 15.9682 99.9017 16.0329 99.8641 16.0836C99.8266 16.1342 99.7683 16.1654 99.7054 16.1685C99.3919 16.2705 99.0648 16.3245 98.7352 16.3288C98.2336 16.3547 97.7377 16.2122 97.3264 15.9239C96.9652 15.6731 96.7531 15.2584 96.7612 14.8188V12.8363C96.7789 12.458 96.6523 12.0871 96.4069 11.7986C96.1672 11.5316 95.8204 11.3861 95.462 11.4021C95.1388 11.3899 94.8278 11.5267 94.6184 11.7733C94.3957 12.056 94.2819 12.4093 94.2978 12.7688V15.8817C94.2978 16.042 94.2219 16.1264 94.0616 16.1264H92.6359C92.5688 16.1347 92.5016 16.1116 92.4538 16.0638C92.406 16.016 92.3829 15.9488 92.3913 15.8817V12.8363C92.4097 12.4621 92.2929 12.0938 92.0622 11.7986C91.854 11.5476 91.5448 11.4023 91.2186 11.4021C90.8706 11.3881 90.533 11.5231 90.2907 11.7733C90.0494 12.047 89.9252 12.4044 89.9448 12.7688V15.8817C89.9531 15.9488 89.93 16.016 89.8822 16.0638C89.8344 16.1116 89.7672 16.1347 89.7001 16.1264H88.325C88.1648 16.1264 88.0888 16.042 88.0888 15.8817V11.9083C88.109 11.7711 88.063 11.6324 87.965 11.5344C87.8669 11.4363 87.7283 11.3904 87.5911 11.4106H87.3127C87.1271 11.4106 87.0343 11.3431 87.0343 11.2081V10.2126C87.0253 10.0857 87.1061 9.9697 87.2283 9.93423C87.5202 9.82816 87.829 9.77668 88.1394 9.78238C88.7476 9.73057 89.3316 10.0324 89.6411 10.5585C90.2164 10.0132 90.9928 9.732 91.7839 9.78238C92.5547 9.74475 93.2974 10.0769 93.7832 10.6766C94.3486 10.0622 95.1599 9.73391 95.9935 9.78238C96.7379 9.74755 97.463 10.0259 97.9928 10.5501C98.5109 11.0964 98.7822 11.8313 98.7437 12.5832V14.2113C98.7437 14.5319 98.8871 14.6922 99.157 14.6922C99.2878 14.6983 99.4187 14.6841 99.5451 14.65C99.7194 14.65 99.8122 14.7175 99.8235 14.8525L99.8994 15.907Z" fill="white"/>
<path fill-rule="evenodd" clip-rule="evenodd" d="M0.977377 8.88837C2.25805 3.74093 6.88041 0.127686 12.1848 0.127686C17.4891 0.127686 22.1115 3.74093 23.3922 8.88837H22.3798C20.6721 8.86322 18.9994 9.37359 17.5965 10.3478C17.5156 10.4064 17.4311 10.46 17.3435 10.5081H17.2254C17.1378 10.46 17.0532 10.4064 16.9723 10.3478C14.0774 8.4012 10.2921 8.4012 7.39727 10.3478C7.31631 10.4064 7.23179 10.46 7.14419 10.5081H7.02608C6.93848 10.46 6.85396 10.4064 6.773 10.3478C5.37018 9.37359 3.69745 8.86322 1.98971 8.88837H0.977377ZM20.5577 14.1779C21.0773 13.7732 21.7214 13.5615 22.3799 13.5789H23.7381V10.8709H22.3799C21.2201 10.8569 20.0868 11.2179 19.1488 11.9001C18.0653 12.6989 16.5879 12.6989 15.5044 11.9001C13.5346 10.5289 10.9194 10.5289 8.94955 11.9001C7.86606 12.6989 6.38864 12.6989 5.30515 11.9001C4.35557 11.2092 3.20606 10.8477 2.03193 10.8709H0.631531V13.5789H1.98975C2.64819 13.5615 3.29228 13.7732 3.81195 14.1779C5.77836 15.5501 8.39197 15.5501 10.3584 14.1779C10.8787 13.7744 11.5223 13.5629 12.1806 13.5789C12.8392 13.56 13.4838 13.7719 14.0028 14.1779C15.9726 15.5491 18.5878 15.5491 20.5577 14.1779ZM22.3799 18.4211C21.7214 18.4037 21.0773 18.6154 20.5577 19.0201C18.5878 20.3913 15.9726 20.3913 14.0028 19.0201C13.4838 18.6141 12.8392 18.4022 12.1806 18.4211C11.5223 18.4051 10.8787 18.6166 10.3584 19.0201C8.39197 20.3923 5.77836 20.3923 3.81195 19.0201C3.29228 18.6154 2.64819 18.4037 1.98975 18.4211H0.631531V15.7131H2.03193C3.20606 15.6899 4.35557 16.0514 5.30515 16.7423C6.38864 17.5411 7.86606 17.5411 8.94955 16.7423C10.9194 15.3711 13.5346 15.3711 15.5044 16.7423C16.5879 17.5411 18.0653 17.5411 19.1488 16.7423C20.0868 16.0601 21.2201 15.6991 22.3799 15.7131H23.7381V18.4211H22.3799Z" fill="white"/>
</svg>
