<svg width="102" height="24" viewBox="0 0 102 24" fill="none" xmlns="http://www.w3.org/2000/svg">
<path fill-rule="evenodd" clip-rule="evenodd" d="M60.7211 6.51135C60.2431 6.72314 59.9402 7.2023 59.9537 7.72488V7.74175C59.9506 8.08503 60.0908 8.41405 60.3407 8.64948C60.5905 8.88492 60.9273 9.00539 61.2698 8.98186C61.7924 8.97144 62.2572 8.64679 62.4468 8.15965C62.6365 7.67251 62.5135 7.11908 62.1355 6.75801C61.7575 6.39694 61.199 6.29955 60.7211 6.51135ZM32.4772 7.09198H29.9464V17.325H32.4772V7.09198ZM37.4292 9.42032C35.0334 9.42032 33.4811 10.9304 33.4811 13.4612C33.4811 16.0342 34.9996 17.5106 37.4292 17.5106C39.8589 17.5106 41.3774 15.9921 41.3774 13.4612C41.3774 10.9304 39.8251 9.42032 37.4292 9.42032ZM38.8381 13.4614C38.8381 12.0694 38.2897 11.2511 37.4293 11.2511C36.5688 11.2511 36.0289 12.0948 36.0289 13.4614C36.0289 14.8281 36.5603 15.6548 37.4293 15.6548C38.2982 15.6548 38.8381 14.8787 38.8381 13.4698V13.4614ZM44.7603 17.8231H42.3307V17.8315C42.4741 19.2319 43.866 20.2358 46.1016 20.2358C48.5059 20.2358 50.1341 19.0885 50.1341 17.241V9.56411H47.6032V10.9729C47.2131 10.0405 46.2848 9.44859 45.2749 9.48818C43.3346 9.48818 42.1704 11.0151 42.1704 13.4363C42.1704 15.8575 43.3936 17.2663 45.2411 17.2663C46.2195 17.3194 47.1316 16.7715 47.5442 15.8828H47.5948V17.3C47.5948 18.0593 47.0886 18.5823 46.1269 18.5823C45.5536 18.6594 44.9977 18.3506 44.7603 17.8231ZM47.6032 13.4528C47.6032 12.2211 47.038 11.445 46.1438 11.445C45.2495 11.445 44.7012 12.2127 44.7012 13.4528C44.7012 14.6929 45.2411 15.3931 46.1438 15.3931C47.0464 15.3931 47.6032 14.7098 47.6032 13.4612V13.4528ZM55.0354 9.41201C52.6396 9.41201 51.0873 10.9221 51.0873 13.4529V13.4614C51.0873 16.0344 52.5974 17.5023 55.0354 17.5023C57.4735 17.5023 58.992 15.9838 58.992 13.4529C58.992 10.9221 57.4313 9.41201 55.0354 9.41201ZM56.4443 13.4531C56.4443 12.0611 55.8959 11.2428 55.0355 11.2428C54.175 11.2428 53.6772 12.0949 53.6772 13.47C53.6772 14.8451 54.2087 15.6634 55.0692 15.6634C55.9297 15.6634 56.4443 14.8788 56.4443 13.47V13.4531ZM59.9537 9.58092H62.4846V17.3253H59.9537V9.58092ZM68.6261 17.4263C70.5495 17.4263 71.6715 15.9837 71.6715 13.4528L71.7052 13.4697C71.7052 10.9389 70.5495 9.48787 68.6092 9.45413C67.5911 9.40868 66.6535 10.0056 66.2639 10.9473H66.2133V9.56379H63.6825V19.8053H66.2133V15.9921H66.2639C66.6725 16.9184 67.6158 17.4911 68.6261 17.4263ZM69.1406 13.4529C69.1406 12.2212 68.5754 11.4367 67.6896 11.4367C66.8038 11.4367 66.2386 12.2297 66.2302 13.4529C66.2217 14.6761 66.8038 15.4607 67.6896 15.4607C68.5754 15.4607 69.1406 14.693 69.1406 13.4698V13.4529ZM79.4496 11.9936C79.3905 10.3992 78.1167 9.4037 76.0161 9.4037V9.42058C73.9239 9.42058 72.5657 10.4076 72.5488 11.9261C72.5488 13.1072 73.3418 13.9086 74.8519 14.2207L76.3114 14.5329C76.9188 14.6594 77.155 14.7438 77.155 15.1487C77.155 15.5536 76.8175 15.7983 76.0751 15.7983C75.3328 15.7983 74.8772 15.4608 74.8013 14.8872H72.3633C72.4729 16.4647 73.8818 17.4939 76.033 17.4939C78.1842 17.4939 79.6436 16.4647 79.6436 14.8619C79.6436 13.6893 78.9856 13.065 77.4418 12.736L75.8221 12.407C75.2568 12.2889 74.9785 12.1623 74.9785 11.7658C74.9785 11.3693 75.2906 11.0994 75.9908 11.0994C76.691 11.0994 77.1465 11.4452 77.1465 11.9936H79.4496ZM88.0882 17.3082H85.6501V15.8656H85.5995C85.3234 16.8635 84.3893 17.5343 83.3555 17.4769C82.5775 17.5212 81.8186 17.226 81.2749 16.6677C80.7312 16.1095 80.4562 15.343 80.521 14.5665V9.56385H83.0518V13.9844C83.0518 14.9039 83.5242 15.3932 84.3088 15.3932C84.681 15.394 85.0354 15.234 85.2811 14.9544C85.5267 14.6748 85.6397 14.3028 85.5911 13.9338V9.56385H88.1219L88.0882 17.3082ZM91.7579 9.56379H89.3114L89.2693 17.325H91.8001V12.7611C91.7615 12.4401 91.8621 12.118 92.0766 11.8761C92.2911 11.6343 92.5988 11.4958 92.9221 11.4957C93.6139 11.4957 93.9935 11.9175 93.9935 12.6936V17.325H96.3978V12.7442C96.3563 12.4272 96.4541 12.1077 96.666 11.8683C96.878 11.6289 97.1832 11.493 97.5029 11.4957C98.2115 11.4957 98.5912 11.8837 98.5912 12.7273V17.325H101.122V12.0524C101.173 11.3578 100.926 10.6744 100.443 10.1724C99.9605 9.67036 99.2872 9.39699 98.5912 9.42037C97.506 9.37374 96.527 10.068 96.2122 11.1076H96.1616C95.9935 10.0707 95.0575 9.33652 94.0104 9.42037C92.9896 9.4015 92.0847 10.0741 91.8085 11.057H91.7579V9.56379Z" fill="white"/>
<path fill-rule="evenodd" clip-rule="evenodd" d="M21.1813 4.83968C21.871 5.65961 22.4392 6.57445 22.8685 7.55611C23.4938 8.98739 23.8156 10.5328 23.8133 12.0947C23.8087 18.3994 18.7039 23.5117 12.3993 23.5257C10.9323 23.5249 9.47955 23.2383 8.12215 22.6821C7.15398 22.2974 6.24512 21.7776 5.42259 21.1383C1.92411 18.4721 0.268979 14.0329 1.16801 9.72709C2.06704 5.42132 5.36024 2.0153 9.63329 0.971779C13.9063 -0.0717376 18.3988 1.43297 21.1813 4.83968ZM16.204 3.8191C15.0096 3.26328 13.7082 2.97535 12.3908 2.97549L12.3993 2.95862C9.27539 2.95629 6.36813 4.55454 4.69621 7.19334C3.02429 9.83213 2.82084 13.1435 4.15716 15.9671C4.53822 15.5668 4.77304 15.0496 4.82362 14.4992C5.13045 12.3796 6.79549 10.7145 8.91514 10.4077C10.1111 10.2993 11.0661 9.36534 11.2013 8.17214C11.5082 6.05249 13.1732 4.38745 15.2928 4.08062C15.6065 4.03283 15.9127 3.94494 16.204 3.8191ZM5.41416 18.0003C5.4479 17.9694 5.48163 17.9394 5.51537 17.9094C5.58287 17.8494 5.65036 17.7894 5.71786 17.7219C6.46838 16.9943 6.95013 16.0338 7.08451 14.9971C7.13899 14.4143 7.39918 13.87 7.81845 13.4617C8.22191 13.0417 8.76496 12.7837 9.34539 12.7362C11.465 12.4294 13.1301 10.7643 13.4369 8.64467C13.4734 8.03517 13.735 7.46094 14.1709 7.03337C14.5843 6.62156 15.1325 6.37291 15.7147 6.33317C16.6628 6.20272 17.5471 5.78121 18.2455 5.1268C19.0407 5.78657 19.7145 6.58026 20.2364 7.47205C20.2044 7.51537 20.1676 7.55498 20.1268 7.59015C19.7241 8.01381 19.1817 8.2775 18.5998 8.33253C16.4775 8.63407 14.8098 10.3018 14.5083 12.4241C14.3857 13.6214 13.4368 14.5668 12.239 14.6849C10.1134 14.9894 8.4397 16.6528 8.12215 18.7765C8.07675 19.1888 7.93516 19.5846 7.70878 19.9322C6.84323 19.4183 6.06803 18.7657 5.41416 18.0003ZM9.86 20.9022C10.6829 21.1382 11.5348 21.2575 12.3908 21.2565V21.2143C15.2162 21.2034 17.8772 19.8847 19.5971 17.6431C21.317 15.4016 21.902 12.49 21.1813 9.75809C20.5408 10.2109 19.7995 10.5005 19.0216 10.6017C17.8271 10.7236 16.8826 11.6681 16.7608 12.8626C16.453 14.9849 14.7837 16.6507 12.6608 16.9541C11.4663 17.076 10.5218 18.0205 10.3999 19.215C10.3245 19.8056 10.1415 20.3775 9.86 20.9022Z" fill="white"/>
</svg>
