<svg width="86" height="41" viewBox="0 0 86 41" fill="none" xmlns="http://www.w3.org/2000/svg">
<path d="M0.661072 24.1353H3.19191V36.5448H0.661072V24.1353Z" fill="white"/>
<path fill-rule="evenodd" clip-rule="evenodd" d="M7.4349 28.1253C5.75181 28.8252 4.6564 30.4704 4.65981 32.2932C4.64839 33.4907 5.11962 34.6423 5.96719 35.4883C6.81475 36.3343 7.96726 36.8034 9.1647 36.7897C10.9875 36.7897 12.6307 35.6912 13.3275 34.0068C14.0243 32.3224 13.6373 30.3841 12.3471 29.0964C11.057 27.8087 9.11799 27.4253 7.4349 28.1253ZM9.13178 30.3871C10.2059 30.3687 11.0941 31.2195 11.1218 32.2934C11.1503 32.8252 10.955 33.3448 10.5832 33.7262C10.2115 34.1076 9.69708 34.3161 9.16466 34.3012C8.09041 34.3008 7.21722 33.4346 7.2082 32.3604C7.19918 31.2862 8.05769 30.4055 9.13178 30.3871Z" fill="white"/>
<path fill-rule="evenodd" clip-rule="evenodd" d="M23.8435 36.1237V28.0419L21.3549 28.0672V28.9108C20.7488 28.1717 19.8295 27.762 18.8747 27.8057C16.4892 27.8057 14.5554 29.7395 14.5554 32.125C14.5554 34.5104 16.4892 36.4442 18.8747 36.4442C19.8302 36.492 20.7514 36.0815 21.3549 35.3391V36.1237C21.4039 36.6451 21.208 37.1596 20.8248 37.5165C20.4415 37.8733 19.9142 38.032 19.3977 37.9459C18.6052 38.0114 17.853 37.5868 17.4996 36.8745L15.323 38.1315C16.1738 39.5163 17.7263 40.3104 19.3471 40.1899C21.608 40.1899 23.8435 38.9835 23.8435 36.1237ZM20.1444 30.1643C20.9102 30.5097 21.3893 31.2858 21.3549 32.1251C21.3705 32.6683 21.1557 33.1927 20.7636 33.5688C20.3714 33.9449 19.8385 34.1375 19.2965 34.0992C18.4564 34.0985 17.701 33.5873 17.388 32.8078C17.075 32.0282 17.2671 31.1366 17.8734 30.5551C18.4798 29.9737 19.3786 29.819 20.1444 30.1643Z" fill="white"/>
<path fill-rule="evenodd" clip-rule="evenodd" d="M28.0782 28.1253C26.3951 28.8252 25.2996 30.4704 25.3031 32.2932C25.2916 33.4907 25.7629 34.6423 26.6104 35.4883C27.458 36.3343 28.6105 36.8034 29.808 36.7897C31.6308 36.7897 33.274 35.6912 33.9707 34.0068C34.6675 32.3224 34.2805 30.3841 32.9904 29.0964C31.7003 27.8087 29.7612 27.4253 28.0782 28.1253ZM29.7751 30.3871C30.8492 30.3687 31.7374 31.2195 31.7652 32.2934H31.7483C31.7765 32.8222 31.5835 33.339 31.2154 33.7199C30.8474 34.1007 30.3375 34.3113 29.808 34.3012C28.7337 34.3008 27.8606 33.4346 27.8515 32.3604C27.8425 31.2862 28.701 30.4055 29.7751 30.3871Z" fill="white"/>
<path fill-rule="evenodd" clip-rule="evenodd" d="M37.0208 24.2285C36.1729 24.2285 35.4855 24.9159 35.4855 25.7639C35.4901 26.6099 36.1748 27.2947 37.0208 27.2993C37.8688 27.2993 38.5562 26.6119 38.5562 25.7639C38.5562 24.9159 37.8688 24.2285 37.0208 24.2285ZM38.2778 28.0415H35.747V36.5452H38.2778V28.0415Z" fill="white"/>
<path fill-rule="evenodd" clip-rule="evenodd" d="M48.2189 35.3865C48.9807 34.5424 49.3742 33.4293 49.3122 32.294C49.3719 31.1601 48.9773 30.0492 48.2158 29.2069C47.4543 28.3646 46.3886 27.8605 45.2544 27.806C44.2988 27.7601 43.372 28.1401 42.7236 28.8436V28.0422H40.1927V39.9709H42.7236V35.7528C43.372 36.4563 44.2988 36.8363 45.2544 36.7904C46.3901 36.736 47.4572 36.2306 48.2189 35.3865ZM44.7402 30.3208C45.845 30.3115 46.7533 31.1896 46.7813 32.2941H46.7645C46.8045 32.8529 46.6012 33.4017 46.2067 33.7994C45.8122 34.1971 45.2651 34.405 44.706 34.3694C43.6015 34.3414 42.7234 33.4331 42.7327 32.3283C42.742 31.2235 43.6354 30.3301 44.7402 30.3208Z" fill="white"/>
<path d="M57.1916 33.9977C57.1916 35.9549 55.5044 36.79 53.6484 36.79C52.1316 36.9243 50.6856 36.1228 49.9956 34.7654L52.2059 33.5084C52.3908 34.1407 52.9913 34.5586 53.6484 34.5123C54.2643 34.5123 54.568 34.3182 54.568 33.9808C54.568 33.0444 50.3499 33.5421 50.3499 30.6063C50.3499 28.7504 51.919 27.814 53.7244 27.814C55.081 27.7728 56.3534 28.4703 57.0482 29.6362L54.8295 30.8004C54.6293 30.3452 54.1795 30.0508 53.6822 30.0496C53.2435 30.0496 52.9736 30.2183 52.9736 30.5304C53.0073 31.5006 57.1916 30.851 57.1916 33.9977Z" fill="white"/>
<path d="M66.5051 28.0415V36.5451H63.9742V35.7521C63.377 36.4668 62.4739 36.8526 61.5446 36.7898C59.8574 36.7898 58.3642 35.5665 58.3642 33.2635V28.0415H60.895V32.8923C60.85 33.3109 60.9956 33.7276 61.2917 34.0269C61.5878 34.3263 62.0029 34.4766 62.422 34.4361C63.3499 34.4361 63.9995 33.8962 63.9995 32.6898V28.0415H66.5051Z" fill="white"/>
<path d="M81.1333 31.3315V36.545H78.6024V31.5508C78.6024 30.7072 78.1891 30.1504 77.3792 30.1504C76.5693 30.1504 76.0463 30.7494 76.0463 31.7533V36.545H73.5154V31.5508C73.5154 30.7072 73.1105 30.1504 72.2922 30.1504C71.4739 30.1504 70.9677 30.7494 70.9677 31.7533V36.545H68.4369V28.0414H70.9677V28.826C71.5051 28.1219 72.3624 27.7378 73.2455 27.8052C74.1334 27.7621 74.9788 28.188 75.4726 28.9272C76.0465 28.1549 76.9766 27.7312 77.936 27.8052C79.8594 27.8052 81.1333 29.2056 81.1333 31.3315Z" fill="white"/>
<path d="M83.293 27.9908C84.3366 27.9908 85.1826 27.1448 85.1826 26.1011C85.1826 25.0575 84.3366 24.2114 83.293 24.2114C82.2493 24.2114 81.4033 25.0575 81.4033 26.1011C81.4033 27.1448 82.2493 27.9908 83.293 27.9908Z" fill="white"/>
<path d="M29.3018 17.699C34.1892 17.699 38.1513 13.7369 38.1513 8.8495C38.1513 3.96205 34.1892 0 29.3018 0C24.4143 0 20.4523 3.96205 20.4523 8.8495C20.4523 13.7369 24.4143 17.699 29.3018 17.699Z" fill="white"/>
<path d="M49.0844 17.699C53.9719 17.699 57.9339 13.7369 57.9339 8.8495C57.9339 3.96205 53.9719 0 49.0844 0C44.197 0 40.2349 3.96205 40.2349 8.8495C40.2349 13.7369 44.197 17.699 49.0844 17.699Z" fill="white"/>
<rect x="0.677979" width="17.6906" height="17.6906" fill="white"/>
</svg>
