<svg width="105" height="25" viewBox="0 0 105 25" fill="none" xmlns="http://www.w3.org/2000/svg">
<path d="M22.7028 8.47559C23.0065 8.47559 23.1078 8.58526 23.1078 8.88052V15.5619H26.5413C26.8365 15.5619 26.9462 15.6716 26.9462 15.9669V16.5574C26.9462 16.8527 26.8365 16.9623 26.5413 16.9623H22.0195C21.7242 16.9623 21.6061 16.8527 21.6061 16.5574V8.88052C21.6061 8.58526 21.7242 8.47559 22.0195 8.47559H22.7028Z" fill="white"/>
<path fill-rule="evenodd" clip-rule="evenodd" d="M33.3155 8.29858C31.1727 8.29858 29.9411 9.47121 29.9411 11.42V14.0183C29.9411 15.967 31.1812 17.1396 33.3155 17.1396C35.4499 17.1396 36.69 15.967 36.69 14.0183V11.42C36.69 9.47121 35.4583 8.29858 33.3155 8.29858ZM33.3577 9.73297C34.5894 9.73297 35.2727 10.3235 35.2727 11.4202V14.0354C35.2727 15.1152 34.5894 15.7226 33.3577 15.7226C32.126 15.7226 31.4511 15.1405 31.4511 14.0354V11.4202C31.4511 10.3319 32.126 9.73297 33.3577 9.73297Z" fill="white"/>
<path d="M46.7374 12.3145C47.0664 12.3145 47.1423 12.4241 47.1423 12.7194V14.3223C47.1604 15.087 46.8317 15.8188 46.2481 16.3132C45.5325 16.8831 44.6301 17.1658 43.7173 17.1062C41.5323 17.1062 40.3428 15.9336 40.3428 13.9848V11.3696C40.3428 9.44619 41.5745 8.26514 43.7173 8.26514C45.4045 8.26514 46.5012 8.93159 46.9652 10.2645C47.0178 10.366 47.0194 10.4865 46.9696 10.5894C46.9198 10.6924 46.8244 10.7658 46.7121 10.7875L46.0541 11.0153C45.7672 11.1165 45.6491 11.0575 45.5479 10.7622C45.2604 10.0209 44.5065 9.56928 43.7173 9.66553C42.4771 9.66553 41.8023 10.2645 41.8023 11.3528V14.0354C41.8023 15.1406 42.4856 15.7227 43.7173 15.7227C44.9489 15.7227 45.7082 15.1575 45.7082 14.3307V13.7064H43.8775C43.5738 13.7064 43.4642 13.5883 43.4642 13.2931V12.7194C43.4642 12.4241 43.5738 12.3145 43.8775 12.3145H46.7374Z" fill="white"/>
<path fill-rule="evenodd" clip-rule="evenodd" d="M54.0009 8.29858C51.8581 8.29858 50.6264 9.47121 50.6264 11.42V14.0183C50.6264 15.967 51.8665 17.1396 54.0009 17.1396C56.1352 17.1396 57.3753 15.967 57.3753 14.0183V11.42C57.3753 9.47121 56.1437 8.29858 54.0009 8.29858ZM54.0431 9.73297C55.2663 9.73297 55.9496 10.3235 55.9496 11.4202V14.0354C55.9496 15.1152 55.2747 15.7226 54.0431 15.7226C52.8114 15.7226 52.1281 15.1405 52.1281 14.0354V11.4202C52.1281 10.3319 52.8198 9.73297 54.0431 9.73297Z" fill="white"/>
<path d="M61.3488 8.72023C61.3488 8.53464 61.4078 8.47559 61.5934 8.47559H61.9815C62.1671 8.47559 62.2092 8.53464 62.2092 8.72023V16.7177C62.2092 16.9033 62.2092 16.9623 61.9815 16.9623H61.5934C61.4078 16.9623 61.3488 16.9033 61.3488 16.7177V8.72023Z" fill="white"/>
<path fill-rule="evenodd" clip-rule="evenodd" d="M72.5435 11.1243C72.5435 9.66131 71.3575 8.47534 69.8946 8.47534H66.7479C66.5707 8.47534 66.5032 8.53439 66.5032 8.71999V16.7174C66.5032 16.903 66.5707 16.9621 66.7479 16.9621H67.1444C67.3215 16.9621 67.3637 16.903 67.3637 16.7174V13.7732H69.8946C71.3575 13.7732 72.5435 12.5873 72.5435 11.1243ZM71.4113 12.0185C71.0828 12.5875 70.4757 12.9381 69.8186 12.9381H67.2878V9.25991H69.8186C70.4757 9.25991 71.0828 9.61044 71.4113 10.1795C71.7398 10.7485 71.7398 11.4495 71.4113 12.0185Z" fill="white"/>
<path d="M79.1321 8.30706C80.4696 8.15945 81.7454 8.90712 82.2703 10.1461C82.3378 10.2811 82.2703 10.3908 82.1353 10.4583L81.7642 10.627C81.6123 10.686 81.5533 10.6776 81.4605 10.5173C81.0683 9.59844 80.1266 9.03892 79.1321 9.1338C77.7064 9.1338 76.9303 9.69902 76.9303 10.7114C76.9132 11.3511 77.3704 11.9055 78.0016 12.0105C78.4554 12.1585 78.9258 12.2492 79.402 12.2805C79.9785 12.3112 80.5472 12.4278 81.0893 12.6264C81.9458 12.8974 82.4951 13.7318 82.4053 14.6257C82.4053 16.2033 81.258 17.1566 79.149 17.1566C77.7235 17.3196 76.3776 16.4657 75.9179 15.1066C75.8878 15.0457 75.8864 14.9745 75.9141 14.9125C75.9419 14.8505 75.9959 14.8041 76.0613 14.786L76.4325 14.651C76.4916 14.6269 76.5582 14.6287 76.6159 14.6559C76.6737 14.6832 76.7173 14.7334 76.7362 14.7944C77.1235 15.7724 78.0997 16.3868 79.149 16.3129C80.7434 16.3129 81.5279 15.7562 81.5279 14.6257C81.5586 14.0121 81.1412 13.4662 80.5409 13.335C80.1044 13.2048 79.6543 13.1255 79.1996 13.0988L78.2885 12.9807C78.0033 12.9201 77.7217 12.8441 77.4449 12.7529C77.1714 12.6703 76.9165 12.5357 76.694 12.3564C76.241 11.9461 75.9938 11.3558 76.0192 10.7451C76.0782 9.26878 77.1833 8.30706 79.1321 8.30706Z" fill="white"/>
<path d="M86.9524 14.0772C87.0267 15.3156 88.0527 16.2818 89.2934 16.2818C90.534 16.2818 91.56 15.3156 91.6344 14.0772V8.72023C91.6344 8.53464 91.6935 8.47559 91.8791 8.47559H92.2671C92.4527 8.47559 92.5118 8.53464 92.5118 8.72023V14.0687C92.5118 15.9837 91.3813 17.1395 89.2976 17.1395C87.2139 17.1395 86.0834 15.9837 86.0834 14.0687V8.72023C86.0834 8.53464 86.1425 8.47559 86.3196 8.47559H86.7161C86.8933 8.47559 86.9524 8.53464 86.9524 8.72023V14.0772Z" fill="white"/>
<path d="M104.154 8.47607C104.339 8.47607 104.398 8.53513 104.398 8.72072V16.7182C104.398 16.9038 104.339 16.9628 104.154 16.9628H103.799C103.622 16.9628 103.563 16.9038 103.563 16.7182V11.8505C103.563 11.1423 103.611 10.4348 103.707 9.73306H103.656C103.392 10.3748 103.085 10.9977 102.736 11.5974L100.923 14.7947C100.877 14.9083 100.767 14.9821 100.644 14.9803H100.408C100.284 14.9809 100.171 14.9081 100.121 14.7947L98.2821 11.5637C97.9555 10.9725 97.6735 10.3578 97.4385 9.72462H97.3879C97.4743 10.4328 97.5194 11.1455 97.5229 11.859V16.7182C97.5229 16.9038 97.4638 16.9628 97.2782 16.9628H96.9492C96.7636 16.9628 96.7046 16.9038 96.7046 16.7182V8.72072C96.7046 8.53513 96.7636 8.47607 96.9492 8.47607H97.2529C97.3951 8.46282 97.5303 8.54053 97.5904 8.6701L100.543 13.9174L103.479 8.72072C103.572 8.54356 103.622 8.51825 103.808 8.51825L104.154 8.47607Z" fill="white"/>
<path fill-rule="evenodd" clip-rule="evenodd" d="M2.10185 0.866347V18.0001C2.10185 18.2104 2.0183 18.4121 1.86958 18.5609C1.72087 18.7096 1.51917 18.7931 1.30885 18.7931H1.12326C0.685298 18.7931 0.330261 18.4381 0.330261 18.0001V0.866347C0.334886 0.431685 0.688571 0.0817625 1.12326 0.0817871H1.30885C1.74354 0.0817625 2.09722 0.431685 2.10185 0.866347ZM11.829 11.7277C11.9965 11.5683 12.222 11.4845 12.453 11.4961L12.4108 11.5129C12.6563 11.4879 12.9004 11.5716 13.0789 11.742C13.2574 11.9124 13.3524 12.1523 13.3388 12.3987V17.0386C13.3388 17.5278 12.9422 17.9244 12.453 17.9244C11.9638 17.9244 11.5672 17.5278 11.5672 17.0386V12.3397C11.5669 12.1084 11.6615 11.8872 11.829 11.7277ZM14.3595 14.1702C14.3595 13.7043 14.7372 13.3266 15.2031 13.3266C15.4472 13.3042 15.689 13.3891 15.8656 13.5591C16.0421 13.7292 16.136 13.9676 16.1227 14.2124V15.2332C16.1227 15.7201 15.728 16.1147 15.2411 16.1147C14.7542 16.1147 14.3595 15.7201 14.3595 15.2332V14.1702ZM7.69497 21.1891V15.0897C7.43117 15.2903 7.10667 15.3945 6.77544 15.385C6.47159 15.3775 6.17728 15.2774 5.93182 15.0982V21.1891C5.93182 21.6759 6.32652 22.0706 6.8134 22.0706C7.30028 22.0706 7.69497 21.6759 7.69497 21.1891ZM4.01683 17.4012C3.71327 17.3921 3.41941 17.2922 3.17321 17.1144V23.2306C3.17321 23.7198 3.5698 24.1164 4.05901 24.1164C4.54822 24.1164 4.9448 23.7198 4.9448 23.2306V17.1566C4.66932 17.3346 4.34429 17.4203 4.01683 17.4012ZM9.65215 13.3011C9.3344 13.299 9.02506 13.1988 8.76635 13.0143V19.1474C8.76635 19.6366 9.16294 20.0332 9.65215 20.0332C10.1414 20.0332 10.5379 19.6366 10.5379 19.1474V13.0228C10.2703 13.2221 9.94359 13.3261 9.60997 13.318L9.65215 13.3011ZM4.10963 16.7513H3.92404C3.48608 16.7513 3.13104 16.3963 3.13104 15.9583V2.90762C3.13567 2.47296 3.48935 2.12304 3.92404 2.12306H4.10963C4.54432 2.12304 4.898 2.47296 4.90263 2.90762V15.9752C4.90263 16.4131 4.54759 16.7682 4.10963 16.7682V16.7513ZM6.70795 14.7441H6.90198C7.33528 14.7441 7.68654 14.3928 7.68654 13.9595V4.93287C7.68656 4.49818 7.33664 4.1445 6.90198 4.13987H6.70795C6.4984 4.13986 6.29755 4.22368 6.15018 4.37264C6.0028 4.52161 5.92113 4.72333 5.92339 4.93287V13.9595C5.92339 14.3928 6.27465 14.7441 6.70795 14.7441ZM9.69434 12.6768H9.51718C9.0825 12.6769 8.72881 12.3269 8.72419 11.8923V7.03307C8.71018 6.81413 8.78751 6.59917 8.93777 6.43932C9.08803 6.27947 9.2978 6.18901 9.51718 6.18946H9.70278C10.1407 6.18946 10.4958 6.54449 10.4958 6.98245V11.8754C10.498 12.0872 10.4155 12.2911 10.2665 12.4416C10.1176 12.5921 9.91456 12.6769 9.70278 12.6768H9.69434ZM12.3095 10.8631H12.4951H12.5036C12.9382 10.8585 13.2882 10.5048 13.2881 10.0701V8.81315C13.2835 8.37849 12.9298 8.02856 12.4951 8.02859H12.3095C11.8749 8.02856 11.5212 8.37849 11.5165 8.81315V10.0701C11.5165 10.5081 11.8716 10.8631 12.3095 10.8631Z" fill="white"/>
</svg>
