<svg width="108" height="26" viewBox="0 0 108 26" fill="none" xmlns="http://www.w3.org/2000/svg">
<path fill-rule="evenodd" clip-rule="evenodd" d="M64.3975 7.62479C63.8829 7.85767 63.5615 8.37999 63.5857 8.94432L63.6025 8.95276C63.6069 9.30925 63.754 9.64913 64.0108 9.89643C64.2676 10.1437 64.6128 10.2778 64.9692 10.2688C65.534 10.2683 66.0418 9.92444 66.2521 9.40017C66.4623 8.87589 66.3327 8.27648 65.9247 7.88587C65.5166 7.49527 64.9121 7.39192 64.3975 7.62479ZM34.0339 8.25259H31.3259V19.2196H34.0339V8.25259ZM39.3317 10.7498C36.8009 10.7498 35.1137 12.378 35.1137 15.0944C35.1137 17.8699 36.7419 19.4559 39.3317 19.4559C41.9216 19.4559 43.5498 17.8109 43.5498 15.0944C43.5498 12.378 41.8626 10.7498 39.3317 10.7498ZM40.8672 15.0943C40.8672 13.6011 40.2851 12.7237 39.3571 12.7237C38.4291 12.7237 37.8555 13.5673 37.8555 15.0943C37.8555 16.6212 38.4291 17.4564 39.3571 17.4564C40.2851 17.4564 40.884 16.6212 40.884 15.1027L40.8672 15.0943ZM47.2449 19.7849H44.6297L44.6465 19.7933C44.7984 21.3034 46.3 22.3748 48.6453 22.3832C51.2267 22.3832 52.9814 21.1431 52.9814 19.1606V10.9438H50.2987V12.3044C49.8407 11.3874 48.8789 10.821 47.8438 10.8763C45.7263 10.8763 44.4694 12.4961 44.4694 15.0944C44.4694 17.6927 45.7854 19.2028 47.7679 19.2028C48.829 19.2805 49.829 18.7015 50.2903 17.7441V19.245C50.2903 20.0717 49.7504 20.6285 48.7127 20.6285C48.0896 20.7084 47.4895 20.3635 47.2449 19.7849ZM50.2988 15.0943C50.2988 13.7698 49.6914 12.9346 48.7297 12.9346C47.7679 12.9346 47.1774 13.7783 47.1774 15.0943C47.1774 16.4103 47.7595 17.1865 48.7297 17.1865C49.6998 17.1865 50.2988 16.4694 50.2988 15.0943ZM58.2709 10.7498C55.74 10.7498 54.0528 12.378 54.0528 15.0944H54.0697C54.0697 17.8699 55.6894 19.4559 58.2709 19.4559C60.8523 19.4559 62.4889 17.8109 62.4889 15.0944C62.4889 12.378 60.8017 10.7498 58.2709 10.7498ZM59.8062 15.0943C59.8062 13.6011 59.2157 12.7237 58.2962 12.7237C57.3766 12.7237 56.7945 13.5673 56.7945 15.0943C56.7945 16.6212 57.3682 17.4564 58.2962 17.4564C59.2241 17.4564 59.8231 16.6212 59.8231 15.1027L59.8062 15.0943ZM63.5857 10.9354H66.3274V19.2534H63.6278L63.5857 10.9354ZM72.9076 19.3717C74.9744 19.3717 76.1892 17.8026 76.1892 15.0946L76.2399 15.103C76.2399 12.3866 75.0166 10.8259 72.8907 10.8428C71.7937 10.7906 70.7816 11.4316 70.3599 12.4457H70.3093V10.9609H67.6181V21.9279H70.3261V17.8279H70.3767C70.8133 18.8222 71.8237 19.4386 72.9076 19.3717ZM73.4306 15.0944C73.4306 13.7784 72.8147 12.9263 71.8614 12.9263C70.9082 12.9263 70.3092 13.77 70.3008 15.0944C70.2923 16.4189 70.9082 17.2541 71.8614 17.2541C72.8147 17.2541 73.4812 16.4695 73.4812 15.1029L73.4306 15.0944ZM84.5073 13.5339C84.4904 11.8129 83.0816 10.7415 80.8122 10.7415L80.8629 10.75C78.5767 10.75 77.1594 11.8045 77.1088 13.458C77.1088 14.7318 77.9608 15.5839 79.589 15.9298L81.1581 16.2588C81.8077 16.3937 82.0608 16.4697 82.0608 16.9168C82.0608 17.3639 81.6896 17.617 80.8966 17.617C80.1036 17.617 79.6143 17.2542 79.5384 16.6384H76.9147C77.0244 18.334 78.5345 19.4476 80.8544 19.4476C83.1744 19.4476 84.735 18.3003 84.735 16.6131C84.735 15.3561 84.0601 14.6812 82.3729 14.3269L80.6351 13.9726C80.0108 13.846 79.6987 13.7111 79.6987 13.2808C79.6987 12.8506 80.053 12.5637 80.7954 12.5637C81.5377 12.5637 82.0355 12.9349 82.0355 13.5339H84.5073ZM93.8038 19.2448H91.1802V17.6841H91.1296C90.8271 18.7564 89.8209 19.4752 88.7084 19.4135C87.8837 19.4404 87.0867 19.1139 86.518 18.5161C85.9492 17.9183 85.6627 17.1061 85.7304 16.2837V10.9437H88.4384V15.7017C88.4384 16.6802 88.953 17.2117 89.7967 17.2117C90.1971 17.2087 90.5766 17.0323 90.8371 16.7282C91.0976 16.424 91.2135 16.0219 91.1549 15.6257V10.9437H93.8544L93.8038 19.2448ZM97.7435 10.9348H95.1114L95.1283 19.2528H97.8363V14.343C97.7925 13.9977 97.8999 13.6503 98.1311 13.39C98.3623 13.1298 98.6946 12.982 99.0426 12.9848C99.785 12.9848 100.198 13.4319 100.198 14.2755V19.2528H102.78V14.3262C102.733 13.9847 102.838 13.6399 103.066 13.3821C103.295 13.1243 103.625 12.9792 103.969 12.9848C104.737 12.9848 105.134 13.4572 105.134 14.3008V19.2528H107.858V13.6091C107.914 12.8616 107.649 12.1258 107.128 11.5862C106.608 11.0467 105.883 10.7545 105.134 10.783C103.988 10.7293 102.949 11.4528 102.603 12.5461H102.485C102.284 11.4502 101.283 10.6865 100.173 10.783C99.0758 10.7606 98.1016 11.4817 97.8025 12.5377H97.7435V10.9348Z" fill="white"/>
<path fill-rule="evenodd" clip-rule="evenodd" d="M25.9689 8.97015C25.9691 5.5336 23.86 2.44925 20.6576 1.2026C17.4551 -0.0440407 13.8158 0.802623 11.4925 3.33481H0.964233V25.5556H23.1934V15.1707C24.958 13.5924 25.9673 11.3376 25.9689 8.97015ZM21.6917 8.96999C21.6952 10.6154 20.7066 12.1007 19.1875 12.7327C17.6683 13.3647 15.918 13.0189 14.7533 11.8567C13.5886 10.6944 13.2392 8.94478 13.868 7.4243C14.4969 5.90383 15.9801 4.91221 17.6255 4.91221C19.8679 4.9122 21.6871 6.72757 21.6917 8.96999ZM5.24135 21.2786H18.9163V17.2039C18.4897 17.2747 18.0581 17.3113 17.6256 17.3136C13.0196 17.309 9.2869 13.5762 9.28225 8.97028C9.28596 8.51478 9.32829 8.06041 9.4088 7.61206H5.24135V21.2786Z" fill="white"/>
</svg>
